<svg width="19" height="18" viewBox="0 0 19 18" fill="none" xmlns="http://www.w3.org/2000/svg">
<path fill-rule="evenodd" clip-rule="evenodd" d="M18.39 9.20419C18.39 8.56601 18.3327 7.95237 18.2264 7.36328H9.75V10.8446H14.5936C14.385 11.9696 13.7509 12.9228 12.7977 13.561V15.8192H15.7064C17.4082 14.2524 18.39 11.9451 18.39 9.20419Z" fill="#4285F4"/>
<path fill-rule="evenodd" clip-rule="evenodd" d="M9.75 18C12.18 18 14.2173 17.1941 15.7064 15.8195L12.7977 13.5613C11.9918 14.1013 10.9609 14.4204 9.75 14.4204C7.40591 14.4204 5.42182 12.8372 4.71409 10.71H1.70727V13.0418C3.18818 15.9831 6.23182 18 9.75 18Z" fill="#34A853"/>
<path fill-rule="evenodd" clip-rule="evenodd" d="M4.71409 10.7098C4.53409 10.1698 4.43182 9.59301 4.43182 8.99983C4.43182 8.40664 4.53409 7.82983 4.71409 7.28983V4.95801H1.70727C1.09773 6.17301 0.75 7.54755 0.75 8.99983C0.75 10.4521 1.09773 11.8266 1.70727 13.0416L4.71409 10.7098Z" fill="#FBBC05"/>
<path fill-rule="evenodd" clip-rule="evenodd" d="M9.75 3.57955C11.0714 3.57955 12.2577 4.03364 13.1905 4.92545L15.7718 2.34409C14.2132 0.891818 12.1759 0 9.75 0C6.23182 0 3.18818 2.01682 1.70727 4.95818L4.71409 7.29C5.42182 5.16273 7.40591 3.57955 9.75 3.57955Z" fill="#EA4335"/>
</svg>
